<svg width="2870" height="1723" xmlns="http://www.w3.org/2000/svg" xmlns:xlink="http://www.w3.org/1999/xlink" overflow="hidden"><defs><clipPath id="clip0"><rect x="1455" y="128" width="2870" height="1723"/></clipPath><clipPath id="clip1"><rect x="1455" y="128" width="2868" height="1721"/></clipPath><clipPath id="clip2"><rect x="1455" y="128" width="2868" height="1721"/></clipPath><clipPath id="clip3"><rect x="1455" y="128" width="2868" height="1721"/></clipPath><clipPath id="clip4"><rect x="1455" y="128" width="2868" height="1721"/></clipPath><clipPath id="clip5"><rect x="1455" y="128" width="2868" height="1721"/></clipPath><clipPath id="clip6"><rect x="1455" y="128" width="2868" height="1721"/></clipPath><clipPath id="clip7"><rect x="1455" y="128" width="2868" height="1721"/></clipPath><clipPath id="clip8"><rect x="1455" y="128" width="2868" height="1721"/></clipPath><clipPath id="clip9"><rect x="1455" y="128" width="2868" height="1721"/></clipPath><clipPath id="clip10"><rect x="1455" y="128" width="2868" height="1721"/></clipPath><clipPath id="clip11"><rect x="1455" y="128" width="2868" height="1721"/></clipPath><clipPath id="clip12"><rect x="1455" y="128" width="2868" height="1721"/></clipPath><clipPath id="clip13"><rect x="1455" y="128" width="2868" height="1721"/></clipPath><clipPath id="clip14"><rect x="1455" y="128" width="2868" height="1721"/></clipPath><clipPath id="clip15"><rect x="1455" y="128" width="2868" height="1721"/></clipPath><clipPath id="clip16"><rect x="1455" y="128" width="2868" height="1721"/></clipPath><clipPath id="clip17"><rect x="1455" y="128" width="2868" height="1721"/></clipPath><clipPath id="clip18"><rect x="1455" y="128" width="2868" height="1721"/></clipPath><clipPath id="clip19"><rect x="1455" y="128" width="2868" height="1721"/></clipPath><clipPath id="clip20"><rect x="1455" y="128" width="2868" height="1721"/></clipPath><clipPath id="clip21"><rect x="1455" y="128" width="2868" height="1721"/></clipPath><clipPath id="clip22"><rect x="1455" y="128" width="2868" height="1721"/></clipPath><clipPath id="clip23"><rect x="1455" y="128" width="2868" height="1721"/></clipPath><clipPath id="clip24"><rect x="1455" y="128" width="2868" height="1721"/></clipPath><clipPath id="clip25"><rect x="1455" y="128" width="2868" height="1721"/></clipPath><clipPath id="clip26"><rect x="1455" y="128" width="2868" height="1721"/></clipPath><clipPath id="clip27"><rect x="1455" y="128" width="2868" height="1721"/></clipPath><clipPath id="clip28"><rect x="1455" y="128" width="2868" height="1721"/></clipPath><clipPath id="clip29"><rect x="1455" y="128" width="2868" height="1721"/></clipPath><clipPath id="clip30"><rect x="1455" y="128" width="2868" height="1721"/></clipPath><clipPath id="clip31"><rect x="1455" y="128" width="2868" height="1721"/></clipPath><clipPath id="clip32"><rect x="1455" y="128" width="2868" height="1721"/></clipPath><clipPath id="clip33"><rect x="1455" y="128" width="2868" height="1721"/></clipPath><clipPath id="clip34"><rect x="1455" y="128" width="2868" height="1721"/></clipPath><clipPath id="clip35"><rect x="1455" y="128" width="2868" height="1721"/></clipPath></defs><g clip-path="url(#clip0)" transform="translate(-1455 -128)"><rect x="1456" y="129" width="2867" height="1720" fill="#FFFFFF"/><g clip-path="url(#clip1)"><path d="M1857.5 1272.54 4134.5 1272.54M1857.5 1152.54 4134.5 1152.54M1857.5 1033.53 4134.5 1033.53M1857.5 914.53 4134.5 914.53M1857.5 794.526 4134.5 794.526M1857.5 675.522 4134.5 675.522M1857.5 556.518 4134.5 556.518M1857.5 436.5 4134.5 436.5" stroke="#D9D9D9" stroke-width="3.4375" stroke-linejoin="round" stroke-miterlimit="10" fill="none"/></g><g clip-path="url(#clip2)"><path d="M2009.57 436.5 2009.57 1391.5M2161.57 436.5 2161.57 1391.5M2312.58 436.5 2312.58 1391.5M2464.58 436.5 2464.58 1391.5M2616.59 436.5 2616.59 1391.5M2768.59 436.5 2768.59 1391.5M2920.6 436.5 2920.6 1391.5M3071.6 436.5 3071.6 1391.5M3223.61 436.5 3223.61 1391.5M3375.61 436.5 3375.61 1391.5M3527.62 436.5 3527.62 1391.5M3678.62 436.5 3678.62 1391.5M3830.63 436.5 3830.63 1391.5M3982.63 436.5 3982.63 1391.5M4134.5 436.5 4134.5 1391.5" stroke="#D9D9D9" stroke-width="3.4375" stroke-linejoin="round" stroke-miterlimit="10" fill="none"/></g><g clip-path="url(#clip3)"><path d="M0 0 0.000360892 955" stroke="#BFBFBF" stroke-width="3.4375" stroke-linejoin="round" stroke-miterlimit="10" fill="none" fill-rule="evenodd" transform="matrix(1 0 0 -1 1857.5 1391.5)"/></g><g clip-path="url(#clip4)"><path d="M1857.5 1391.5 4134.5 1391.5" stroke="#BFBFBF" stroke-width="3.4375" stroke-linejoin="round" stroke-miterlimit="10" fill="none" fill-rule="evenodd"/></g><g clip-path="url(#clip5)"><path d="M3993.28 569.406C3993.28 575.48 3988.36 580.405 3982.28 580.405 3976.21 580.405 3971.28 575.48 3971.28 569.406 3971.28 563.331 3976.21 558.406 3982.28 558.406 3988.36 558.406 3993.28 563.331 3993.28 569.406Z" stroke="#5B9BD5" stroke-width="3.4375" stroke-linejoin="round" stroke-miterlimit="10" fill="#5B9BD5"/><path d="M3841.28 570.406C3841.28 576.481 3836.36 581.405 3830.28 581.405 3824.21 581.405 3819.28 576.481 3819.28 570.406 3819.28 564.331 3824.21 559.406 3830.28 559.406 3836.36 559.406 3841.28 564.331 3841.28 570.406Z" stroke="#5B9BD5" stroke-width="3.4375" stroke-linejoin="round" stroke-miterlimit="10" fill="#5B9BD5"/><path d="M3690.28 573.405C3690.28 579.48 3685.36 584.405 3679.28 584.405 3673.21 584.405 3668.28 579.48 3668.28 573.405 3668.28 567.33 3673.21 562.406 3679.28 562.406 3685.36 562.406 3690.28 567.33 3690.28 573.405Z" stroke="#5B9BD5" stroke-width="3.4375" stroke-linejoin="round" stroke-miterlimit="10" fill="#5B9BD5"/><path d="M3538.28 574.405C3538.28 580.48 3533.36 585.405 3527.28 585.405 3521.21 585.405 3516.28 580.48 3516.28 574.405 3516.28 568.33 3521.21 563.406 3527.28 563.406 3533.36 563.406 3538.28 568.33 3538.28 574.405Z" stroke="#5B9BD5" stroke-width="3.4375" stroke-linejoin="round" stroke-miterlimit="10" fill="#5B9BD5"/><path d="M3386.28 574.405C3386.28 580.48 3381.36 585.405 3375.28 585.405 3369.21 585.405 3364.28 580.48 3364.28 574.405 3364.28 568.33 3369.21 563.406 3375.28 563.406 3381.36 563.406 3386.28 568.33 3386.28 574.405Z" stroke="#5B9BD5" stroke-width="3.4375" stroke-linejoin="round" stroke-miterlimit="10" fill="#5B9BD5"/><path d="M3234.28 575.405C3234.28 581.48 3229.36 586.405 3223.28 586.405 3217.21 586.405 3212.28 581.48 3212.28 575.405 3212.28 569.33 3217.21 564.406 3223.28 564.406 3229.36 564.406 3234.28 569.33 3234.28 575.405Z" stroke="#5B9BD5" stroke-width="3.4375" stroke-linejoin="round" stroke-miterlimit="10" fill="#5B9BD5"/><path d="M3082.28 578.405C3082.28 584.48 3077.36 589.405 3071.28 589.405 3065.21 589.405 3060.28 584.48 3060.28 578.405 3060.28 572.331 3065.21 567.406 3071.28 567.406 3077.36 567.406 3082.28 572.331 3082.28 578.405Z" stroke="#5B9BD5" stroke-width="3.4375" stroke-linejoin="round" stroke-miterlimit="10" fill="#5B9BD5"/><path d="M2931.28 580.406C2931.28 586.48 2926.36 591.405 2920.28 591.405 2914.21 591.405 2909.28 586.48 2909.28 580.406 2909.28 574.331 2914.21 569.406 2920.28 569.406 2926.36 569.406 2931.28 574.331 2931.28 580.406Z" stroke="#5B9BD5" stroke-width="3.4375" stroke-linejoin="round" stroke-miterlimit="10" fill="#5B9BD5"/><path d="M2779.28 591.406C2779.28 597.48 2774.36 602.405 2768.28 602.405 2762.21 602.405 2757.28 597.48 2757.28 591.406 2757.28 585.331 2762.21 580.406 2768.28 580.406 2774.36 580.406 2779.28 585.331 2779.28 591.406Z" stroke="#5B9BD5" stroke-width="3.4375" stroke-linejoin="round" stroke-miterlimit="10" fill="#5B9BD5"/><path d="M2627.28 597.405C2627.28 603.48 2622.36 608.405 2616.28 608.405 2610.21 608.405 2605.28 603.48 2605.28 597.405 2605.28 591.33 2610.21 586.406 2616.28 586.406 2622.36 586.406 2627.28 591.33 2627.28 597.405Z" stroke="#5B9BD5" stroke-width="3.4375" stroke-linejoin="round" stroke-miterlimit="10" fill="#5B9BD5"/><path d="M2475.28 600.405C2475.28 606.48 2470.36 611.405 2464.28 611.405 2458.21 611.405 2453.28 606.48 2453.28 600.405 2453.28 594.331 2458.21 589.406 2464.28 589.406 2470.36 589.406 2475.28 594.331 2475.28 600.405Z" stroke="#5B9BD5" stroke-width="3.4375" stroke-linejoin="round" stroke-miterlimit="10" fill="#5B9BD5"/><path d="M2323.28 606.405C2323.28 612.48 2318.36 617.405 2312.28 617.405 2306.21 617.405 2301.28 612.48 2301.28 606.405 2301.28 600.33 2306.21 595.406 2312.28 595.406 2318.36 595.406 2323.28 600.33 2323.28 606.405Z" stroke="#5B9BD5" stroke-width="3.4375" stroke-linejoin="round" stroke-miterlimit="10" fill="#5B9BD5"/><path d="M2172.28 680.406C2172.28 686.481 2167.36 691.405 2161.28 691.405 2155.21 691.405 2150.28 686.481 2150.28 680.406 2150.28 674.331 2155.21 669.406 2161.28 669.406 2167.36 669.406 2172.28 674.331 2172.28 680.406Z" stroke="#5B9BD5" stroke-width="3.4375" stroke-linejoin="round" stroke-miterlimit="10" fill="#5B9BD5"/><path d="M2020.28 720.405C2020.28 726.48 2015.36 731.405 2009.28 731.405 2003.21 731.405 1998.28 726.48 1998.28 720.405 1998.28 714.331 2003.21 709.406 2009.28 709.406 2015.36 709.406 2020.28 714.331 2020.28 720.405Z" stroke="#5B9BD5" stroke-width="3.4375" stroke-linejoin="round" stroke-miterlimit="10" fill="#5B9BD5"/></g><g clip-path="url(#clip6)"><text fill="#595959" font-family="Segoe UI,Segoe UI_MSFontService,sans-serif" font-weight="400" font-size="73" transform="matrix(1 0 0 1 1742.95 1416)">0</text></g><g clip-path="url(#clip7)"><text fill="#595959" font-family="Segoe UI,Segoe UI_MSFontService,sans-serif" font-weight="400" font-size="73" transform="matrix(1 0 0 1 1663.89 1297)">500</text></g><g clip-path="url(#clip8)"><text fill="#595959" font-family="Segoe UI,Segoe UI_MSFontService,sans-serif" font-weight="400" font-size="73" transform="matrix(1 0 0 1 1624.36 1177)">1000</text></g><g clip-path="url(#clip9)"><text fill="#595959" font-family="Segoe UI,Segoe UI_MSFontService,sans-serif" font-weight="400" font-size="73" transform="matrix(1 0 0 1 1624.36 1058)">1500</text></g><g clip-path="url(#clip10)"><text fill="#595959" font-family="Segoe UI,Segoe UI_MSFontService,sans-serif" font-weight="400" font-size="73" transform="matrix(1 0 0 1 1624.36 939)">2000</text></g><g clip-path="url(#clip11)"><text fill="#595959" font-family="Segoe UI,Segoe UI_MSFontService,sans-serif" font-weight="400" font-size="73" transform="matrix(1 0 0 1 1624.36 819)">2500</text></g><g clip-path="url(#clip12)"><text fill="#595959" font-family="Segoe UI,Segoe UI_MSFontService,sans-serif" font-weight="400" font-size="73" transform="matrix(1 0 0 1 1624.36 700)">3000</text></g><g clip-path="url(#clip13)"><text fill="#595959" font-family="Segoe UI,Segoe UI_MSFontService,sans-serif" font-weight="400" font-size="73" transform="matrix(1 0 0 1 1624.36 580)">3500</text></g><g clip-path="url(#clip14)"><text fill="#595959" font-family="Segoe UI,Segoe UI_MSFontService,sans-serif" font-weight="400" font-size="73" transform="matrix(1 0 0 1 1624.36 461)">4000</text></g><g clip-path="url(#clip15)"><text fill="#595959" font-family="Segoe UI,Segoe UI_MSFontService,sans-serif" font-weight="400" font-size="73" transform="matrix(1 0 0 1 1837.86 1523)">0</text></g><g clip-path="url(#clip16)"><text fill="#595959" font-family="Segoe UI,Segoe UI_MSFontService,sans-serif" font-weight="400" font-size="73" transform="matrix(1 0 0 1 1961.93 1523)">0.4</text></g><g clip-path="url(#clip17)"><text fill="#595959" font-family="Segoe UI,Segoe UI_MSFontService,sans-serif" font-weight="400" font-size="73" transform="matrix(1 0 0 1 2113.72 1523)">0.8</text></g><g clip-path="url(#clip18)"><text fill="#595959" font-family="Segoe UI,Segoe UI_MSFontService,sans-serif" font-weight="400" font-size="73" transform="matrix(1 0 0 1 2265.51 1523)">1.2</text></g><g clip-path="url(#clip19)"><text fill="#595959" font-family="Segoe UI,Segoe UI_MSFontService,sans-serif" font-weight="400" font-size="73" transform="matrix(1 0 0 1 2417.3 1523)">1.6</text></g><g clip-path="url(#clip20)"><text fill="#595959" font-family="Segoe UI,Segoe UI_MSFontService,sans-serif" font-weight="400" font-size="73" transform="matrix(1 0 0 1 2596.8 1523)">2</text></g><g clip-path="url(#clip21)"><text fill="#595959" font-family="Segoe UI,Segoe UI_MSFontService,sans-serif" font-weight="400" font-size="73" transform="matrix(1 0 0 1 2720.87 1523)">2.4</text></g><g clip-path="url(#clip22)"><text fill="#595959" font-family="Segoe UI,Segoe UI_MSFontService,sans-serif" font-weight="400" font-size="73" transform="matrix(1 0 0 1 2872.66 1523)">2.8</text></g><g clip-path="url(#clip23)"><text fill="#595959" font-family="Segoe UI,Segoe UI_MSFontService,sans-serif" font-weight="400" font-size="73" transform="matrix(1 0 0 1 3024.45 1523)">3.2</text></g><g clip-path="url(#clip24)"><text fill="#595959" font-family="Segoe UI,Segoe UI_MSFontService,sans-serif" font-weight="400" font-size="73" transform="matrix(1 0 0 1 3176.24 1523)">3.6</text></g><g clip-path="url(#clip25)"><text fill="#595959" font-family="Segoe UI,Segoe UI_MSFontService,sans-serif" font-weight="400" font-size="73" transform="matrix(1 0 0 1 3355.74 1523)">4</text></g><g clip-path="url(#clip26)"><text fill="#595959" font-family="Segoe UI,Segoe UI_MSFontService,sans-serif" font-weight="400" font-size="73" transform="matrix(1 0 0 1 3479.82 1523)">4.4</text></g><g clip-path="url(#clip27)"><text fill="#595959" font-family="Segoe UI,Segoe UI_MSFontService,sans-serif" font-weight="400" font-size="73" transform="matrix(1 0 0 1 3631.6 1523)">4.8</text></g><g clip-path="url(#clip28)"><text fill="#595959" font-family="Segoe UI,Segoe UI_MSFontService,sans-serif" font-weight="400" font-size="73" transform="matrix(1 0 0 1 3783.39 1523)">5.2</text></g><g clip-path="url(#clip29)"><text fill="#595959" font-family="Segoe UI,Segoe UI_MSFontService,sans-serif" font-weight="400" font-size="73" transform="matrix(1 0 0 1 3935.18 1523)">5.6</text></g><g clip-path="url(#clip30)"><text fill="#595959" font-family="Segoe UI,Segoe UI_MSFontService,sans-serif" font-weight="400" font-size="73" transform="matrix(1 0 0 1 4114.69 1523)">6</text></g><g clip-path="url(#clip31)"><text fill="#595959" font-family="Segoe UI,Segoe UI_MSFontService,sans-serif" font-weight="400" font-size="73" transform="matrix(6.12323e-17 -1 1 6.12323e-17 1592.07 1068)">Elo rating</text></g><g clip-path="url(#clip32)"><text fill="#595959" font-family="Segoe UI,Segoe UI_MSFontService,sans-serif" font-weight="400" font-size="73" transform="matrix(1 0 0 1 2785.06 1774)">Steps trained</text></g><g clip-path="url(#clip33)"><text fill="#595959" font-family="Segoe UI,Segoe UI_MSFontService,sans-serif" font-weight="400" font-size="73" transform="matrix(1 0 0 1 3868.23 1635)">Millions</text></g><g clip-path="url(#clip34)"><text fill="#595959" font-family="Segoe UI,Segoe UI_MSFontService,sans-serif" font-weight="400" font-size="73" transform="matrix(1 0 0 1 1795.96 242)">ChessCoach Elo rating across training history at 60+0.6 time control </text></g><g clip-path="url(#clip35)"><text fill="#595959" font-family="Segoe UI,Segoe UI_MSFontService,sans-serif" font-weight="400" font-size="73" transform="matrix(1 0 0 1 2330.56 340)">vs. Stockfish 14 pinned to 3550 Elo</text></g><rect x="1456.5" y="129.5" width="2867" height="1720" stroke="#D9D9D9" stroke-width="3.4375" stroke-linejoin="round" stroke-miterlimit="10" fill="none"/></g></svg>